<svg width="32" height="32" viewBox="0 0 32 32" fill="none" xmlns="http://www.w3.org/2000/svg">
<path d="M26 14.6667H10.1867L15.0267 8.85338C15.253 8.58109 15.3619 8.23005 15.3294 7.87748C15.2969 7.52491 15.1256 7.19969 14.8533 6.97338C14.581 6.74706 14.23 6.63817 13.8774 6.67068C13.5249 6.70319 13.1997 6.87442 12.9733 7.14671L6.30667 15.1467C6.26181 15.2103 6.22171 15.2772 6.18667 15.3467C6.18667 15.4134 6.18667 15.4534 6.09333 15.52C6.0329 15.6729 6.00125 15.8357 6 16C6.00125 16.1644 6.0329 16.3272 6.09333 16.48C6.09333 16.5467 6.09333 16.5867 6.18667 16.6534C6.22171 16.7229 6.26181 16.7897 6.30667 16.8534L12.9733 24.8534C13.0987 25.0039 13.2557 25.1249 13.4331 25.2079C13.6106 25.2908 13.8041 25.3337 14 25.3334C14.3115 25.334 14.6135 25.2255 14.8533 25.0267C14.9883 24.9148 15.0999 24.7773 15.1817 24.6222C15.2636 24.467 15.3139 24.2973 15.33 24.1227C15.3461 23.948 15.3276 23.7719 15.2756 23.6045C15.2235 23.437 15.1389 23.2814 15.0267 23.1467L10.1867 17.3334H26C26.3536 17.3334 26.6928 17.1929 26.9428 16.9429C27.1929 16.6928 27.3333 16.3537 27.3333 16C27.3333 15.6464 27.1929 15.3073 26.9428 15.0572C26.6928 14.8072 26.3536 14.6667 26 14.6667Z" fill="white"/>
</svg>
